<mxfile host="drawio-plugin" modified="2022-05-29T13:37:47.990Z" agent="5.0 (X11; Linux x86_64) AppleWebKit/537.36 (KHTML, like Gecko) Chrome/97.0.4692.45 Safari/537.36" etag="UaPOvwVMROL5e1ikQGKH" version="15.5.4" type="embed"><diagram id="23iRSUPoRavnBvh4doch" name="Page-1"><mxGraphModel dx="1948" dy="1067" grid="1" gridSize="10" guides="1" tooltips="1" connect="1" arrows="1" fold="1" page="1" pageScale="1" pageWidth="827" pageHeight="1169" math="0" shadow="0"><root><mxCell id="0"/><mxCell id="1" parent="0"/><mxCell id="2" value="Mobile Application" style="rounded=0;whiteSpace=wrap;html=1;" parent="1" vertex="1"><mxGeometry x="110" y="360" width="120" height="60" as="geometry"/></mxCell><mxCell id="5" value="Home" style="rounded=0;whiteSpace=wrap;html=1;" parent="1" vertex="1"><mxGeometry x="454" y="640" width="120" height="60" as="geometry"/></mxCell><mxCell id="6" value="Notification" style="rounded=0;whiteSpace=wrap;html=1;" parent="1" vertex="1"><mxGeometry x="60" y="650" width="120" height="60" as="geometry"/></mxCell><mxCell id="7" value="My Account" style="rounded=0;whiteSpace=wrap;html=1;" parent="1" vertex="1"><mxGeometry x="310" y="890" width="120" height="60" as="geometry"/></mxCell><mxCell id="9" value="" style="endArrow=none;html=1;rounded=0;" parent="1" source="2" target="5" edge="1"><mxGeometry width="50" height="50" relative="1" as="geometry"><mxPoint x="380" y="430" as="sourcePoint"/><mxPoint x="430" y="380" as="targetPoint"/></mxGeometry></mxCell><mxCell id="11" value="" style="endArrow=none;html=1;rounded=0;" parent="1" source="6" target="2" edge="1"><mxGeometry width="50" height="50" relative="1" as="geometry"><mxPoint x="360" y="570" as="sourcePoint"/><mxPoint x="220" y="380" as="targetPoint"/></mxGeometry></mxCell><mxCell id="13" value="Settings" style="rounded=0;whiteSpace=wrap;html=1;" parent="1" vertex="1"><mxGeometry x="460" y="740" width="120" height="60" as="geometry"/></mxCell><mxCell id="14" value="Information" style="rounded=0;whiteSpace=wrap;html=1;" parent="1" vertex="1"><mxGeometry x="590" y="740" width="120" height="60" as="geometry"/></mxCell><mxCell id="15" value="Prospect (Exact date, quality and production of crops)" style="rounded=0;whiteSpace=wrap;html=1;" parent="1" vertex="1"><mxGeometry x="330" y="740" width="120" height="60" as="geometry"/></mxCell><mxCell id="16" value="Temperature, Humidity, Light, PH in real time" style="rounded=0;whiteSpace=wrap;html=1;" parent="1" vertex="1"><mxGeometry x="980" y="920" width="120" height="60" as="geometry"/></mxCell><mxCell id="17" value="History by broken line graph" style="rounded=0;whiteSpace=wrap;html=1;" parent="1" vertex="1"><mxGeometry x="850" y="920" width="120" height="60" as="geometry"/></mxCell><mxCell id="18" value="" style="endArrow=none;html=1;rounded=0;" parent="1" source="14" target="16" edge="1"><mxGeometry width="50" height="50" relative="1" as="geometry"><mxPoint x="786" y="460" as="sourcePoint"/><mxPoint x="836" y="410" as="targetPoint"/></mxGeometry></mxCell><mxCell id="19" value="" style="endArrow=none;html=1;rounded=0;" parent="1" source="14" target="17" edge="1"><mxGeometry width="50" height="50" relative="1" as="geometry"><mxPoint x="796" y="680" as="sourcePoint"/><mxPoint x="846" y="630" as="targetPoint"/></mxGeometry></mxCell><mxCell id="20" value="" style="endArrow=none;html=1;rounded=0;" parent="1" source="14" target="5" edge="1"><mxGeometry width="50" height="50" relative="1" as="geometry"><mxPoint x="146" y="1310" as="sourcePoint"/><mxPoint x="196" y="1260" as="targetPoint"/></mxGeometry></mxCell><mxCell id="21" value="" style="endArrow=none;html=1;rounded=0;" parent="1" source="15" target="5" edge="1"><mxGeometry width="50" height="50" relative="1" as="geometry"><mxPoint x="336" y="1350" as="sourcePoint"/><mxPoint x="446" y="1030" as="targetPoint"/></mxGeometry></mxCell><mxCell id="22" value="" style="endArrow=none;html=1;rounded=0;" parent="1" source="5" target="13" edge="1"><mxGeometry width="50" height="50" relative="1" as="geometry"><mxPoint x="276" y="1130" as="sourcePoint"/><mxPoint x="326" y="1080" as="targetPoint"/></mxGeometry></mxCell><mxCell id="23" value="initial data of crops" style="rounded=0;whiteSpace=wrap;html=1;" parent="1" vertex="1"><mxGeometry x="570" y="890" width="120" height="60" as="geometry"/></mxCell><mxCell id="24" value="the weight between quality and production" style="rounded=0;whiteSpace=wrap;html=1;" parent="1" vertex="1"><mxGeometry x="440" y="890" width="120" height="60" as="geometry"/></mxCell><mxCell id="25" value="" style="endArrow=none;html=1;rounded=0;" parent="1" source="13" target="23" edge="1"><mxGeometry width="50" height="50" relative="1" as="geometry"><mxPoint x="656" y="510" as="sourcePoint"/><mxPoint x="706" y="460" as="targetPoint"/></mxGeometry></mxCell><mxCell id="26" value="" style="endArrow=none;html=1;rounded=0;" parent="1" source="13" target="24" edge="1"><mxGeometry width="50" height="50" relative="1" as="geometry"><mxPoint x="586" y="500" as="sourcePoint"/><mxPoint x="636" y="450" as="targetPoint"/></mxGeometry></mxCell><mxCell id="27" value="Data field" style="rounded=0;whiteSpace=wrap;html=1;" vertex="1" parent="1"><mxGeometry x="60" y="770" width="120" height="60" as="geometry"/></mxCell><mxCell id="30" value="" style="endArrow=none;html=1;rounded=0;" edge="1" parent="1" source="27" target="6"><mxGeometry width="50" height="50" relative="1" as="geometry"><mxPoint x="-150" y="870" as="sourcePoint"/><mxPoint x="-100" y="820" as="targetPoint"/></mxGeometry></mxCell><mxCell id="35" value="Abnormal of temperatur, humidity, light, PH, nutrition" style="rounded=0;whiteSpace=wrap;html=1;" vertex="1" parent="1"><mxGeometry x="60" y="890" width="120" height="60" as="geometry"/></mxCell><mxCell id="42" value="" style="endArrow=none;html=1;rounded=0;" edge="1" parent="1" source="35" target="27"><mxGeometry width="50" height="50" relative="1" as="geometry"><mxPoint x="-200" y="830" as="sourcePoint"/><mxPoint x="-150" y="780" as="targetPoint"/></mxGeometry></mxCell><mxCell id="45" value="Security" style="rounded=0;whiteSpace=wrap;html=1;" vertex="1" parent="1"><mxGeometry x="210" y="980" width="120" height="60" as="geometry"/></mxCell><mxCell id="46" value="Information" style="rounded=0;whiteSpace=wrap;html=1;" vertex="1" parent="1"><mxGeometry x="340" y="980" width="120" height="60" as="geometry"/></mxCell><mxCell id="47" value="" style="endArrow=none;html=1;rounded=0;" edge="1" parent="1" source="45" target="7"><mxGeometry width="50" height="50" relative="1" as="geometry"><mxPoint x="250" y="950" as="sourcePoint"/><mxPoint x="300" y="900" as="targetPoint"/></mxGeometry></mxCell><mxCell id="48" value="" style="endArrow=none;html=1;rounded=0;" edge="1" parent="1" source="46" target="7"><mxGeometry width="50" height="50" relative="1" as="geometry"><mxPoint x="230" y="890" as="sourcePoint"/><mxPoint x="280" y="840" as="targetPoint"/></mxGeometry></mxCell><mxCell id="49" value="" style="endArrow=none;html=1;rounded=0;" edge="1" parent="1" source="7" target="13"><mxGeometry width="50" height="50" relative="1" as="geometry"><mxPoint x="490" y="1070" as="sourcePoint"/><mxPoint x="540" y="1020" as="targetPoint"/></mxGeometry></mxCell></root></mxGraphModel></diagram></mxfile>